<svg width="100%" height="100%" viewBox="0 0 1000 1000"
     xmlns="http://www.w3.org/2000/svg" 
     xmlns:xlink="http://www.w3.org/1999/xlink">

  <style type="text/css"><![CDATA[
    .bg {fill:white;}
    .case {fill:cyan;stroke:none;}
    
    .c1 {fill:lime;stroke:black;stroke-width:8px;}
    .c2 {fill:black;stroke:black;stroke-width:2px;}
    .c3 {fill:gainsboro;stroke:black;stroke-width:2px;}
    
    .s1 {fill:black;stroke:black;stroke-width:8px;}
    .s2 {fill:black;stroke:black;stroke-width:8px;}
    .s3 {fill:black;stroke:black;stroke-width:8px;}
  ]]>
  </style>
<g>
  <circle cx="500" cy="500" r="280" class="case"/>
   <circle cx="500" cy="187.5" r="143" class="bg" transform="rotate(60,500,500)"/>

  <circle cx="500" cy="187.5" r="143" class="bg" transform="rotate(180,500,500)"/>

   <circle cx="500" cy="187.5" r="143" class="bg" transform="rotate(300,500,500)"/>
<g class="s1">
<circle cx="500" cy="187.5" r="170" class="case"/>
<circle cx="500" cy="187.5" r="120" class="c1"/>
<circle cx="500" cy="187.5" r="60" />
</g>
<g class="s2" transform="rotate(120,500,500)">
<circle cx="500" cy="187.5" r="170" class="case"/>
<circle cx="500" cy="187.5" r="120" class="c1"/>
<circle cx="500" cy="187.5" r="60" />
</g>
 

<g class="s3" transform="rotate(240,500,500)">
<circle cx="500" cy="187.5" r="170" class="case"/>
<circle cx="500" cy="187.5" r="120" class="c1"/>
<circle cx="500" cy="187.5" r="60" />
</g>

<circle cx="500" cy="500" r="135" class="c2"/>

<circle cx="500" cy="500" r="90" class="c3"/>

<animateTransform id="a1" attributeName="transform" type="rotate" values="0,500,500;360,500,500" dur="0.2s" begin="0s;a2.end"/>

<animateTransform id="a2" attributeName="transform" type="rotate" values="0,500,500;360,500,500" dur="0.2s" begin="a1.end"/>




</g>



























</svg>
